# xmcd CD database file generated by Grip 2.98.2
# 
# Track frame offsets:
#       150
#       9717
#       20895
#       33960
#       45885
#       58362
#       72312
#       85120
#       97187
#       107512
#       120237
#       133250
#       144152
#       153362
#       165807
# 
# Disc length: 2384 secs
# 
# Revision: 2
# Processed by: cddbd v1.4PL0 Copyright (c) Steve Scherf et al.
# Submitted via: Grip 2.98.2
# 
DISCID=bc094e0f
DTITLE=Little Walter - Hate To See You Go
DYEAR=1969
DGENRE=Blues
TTITLE0=Nobody But You
TTITLE1=My Baby's Sweeter
TTITLE2=Roller Coaster
TTITLE3=As Long As I Have You
TTITLE4=Oh Baby
TTITLE5=Take Me Back
TTITLE6=Everything's Going To Be Alright
TTITLE7=Mellow Down Easy
TTITLE8=Hate To See You Go
TTITLE9=I Got To Find My Baby
TTITLE10=Everybody Needs Somebody
TTITLE11=Blue Midnight
TTITLE12=I Had My Fun
TTITLE13=Key To The Highway
TTITLE14=Blue And Lonesome
EXTD=CHD-9321 [Originally released 1969 as Chess LP 1535]\n\nSubmitted 5/29
EXTD=/97 - J. Rockwall
EXTT0=
EXTT1=
EXTT2=
EXTT3=
EXTT4=
EXTT5=
EXTT6=
EXTT7=
EXTT8=
EXTT9=
EXTT10=
EXTT11=
EXTT12=
EXTT13=
EXTT14=
PLAYORDER=
